<svg width="364" height="335" viewBox="0 0 364 335" fill="none" xmlns="http://www.w3.org/2000/svg">
<path d="M200.334 30.073C195.73 12.7953 179.535 0 160.409 0C137.559 0 119.104 17.8889 119.104 40.0973C119.104 43.8462 119.564 47.2692 120.527 50.6106H137.099C138.313 53.3816 139.652 54.9708 139.652 54.9708C144.632 61.9797 152.96 66.5029 162.376 66.5029C177.651 66.5029 190.081 54.4003 190.081 39.5268C190.081 36.1039 190.959 33.0069 189.495 30.073H200.334Z" fill="#3563E9"/>
<path d="M199.204 269.883C194.852 274.161 188.867 277.462 182.129 277.462L182.087 190.055L244.192 172.696L259.76 202.524L199.204 269.883Z" fill="#3563E9"/>
<path d="M147.059 69.9665C142.958 65.5248 137.057 62.7131 130.403 62.7131C123.331 62.7131 117.011 65.8916 112.952 70.9038L63.6532 144.212C61.6444 147.472 60.5144 151.302 60.5144 155.336C60.5144 162.916 64.4483 169.517 70.3909 173.388L136.513 209.125V269.923C136.513 278.521 143.67 285.53 152.5 285.53C161.288 285.53 168.486 278.521 168.486 269.923V194.007C168.486 194.007 170.579 181.905 156.475 175.303L115.254 154.277L145.302 109.616L161.246 133.984C164.427 138.914 168.737 140.83 172.671 140.748L213.6 140.585C230.256 140.585 230.256 119.477 213.6 119.558H180.413L147.059 69.9665Z" fill="#3563E9"/>
<path d="M328.268 169.599C328.938 170.251 329.272 171.025 329.272 172.084C329.272 174 327.64 175.589 325.673 175.589C325.129 175.589 324.794 175.589 324.376 175.426C317.303 172.492 312.825 170.658 304.581 170.658C299.141 170.658 292.403 172.492 284.619 178.604L277.421 164.75C286.418 162.142 293.784 159.819 301.484 159.819C313.788 159.819 320.233 162.305 328.268 169.599Z" fill="#3563E9"/>
<path d="M53.3163 180.275L122.703 217.52L122.87 232.475L43.6072 189.973C37.8738 187.121 30.1735 185.45 24.6912 185.45C16.5306 185.45 11.9689 187.284 4.9382 190.218C4.47786 190.381 4.10121 190.381 3.64087 190.381C1.67394 190.381 0 188.791 0 186.876C0 185.858 0.418473 185.043 1.04621 184.391C9.08133 177.056 17.2838 174.611 29.5458 174.611C35.865 174.611 43.4816 175.344 53.3163 180.275Z" fill="#3563E9"/>
<path d="M59.7611 317.315C82.3598 317.315 100.69 299.467 100.69 277.421C100.69 255.376 82.3598 237.528 59.7611 237.528C37.1623 237.528 18.8322 255.376 18.8322 277.421C18.8322 299.467 37.1623 317.315 59.7611 317.315ZM0.711365 277.462C0.711365 245.718 27.1603 219.924 59.7611 219.924C92.4037 219.924 118.853 245.718 118.853 277.462C118.853 309.206 92.4037 335 59.7611 335C27.1603 335 0.711365 309.206 0.711365 277.462Z" fill="#3563E9"/>
<path d="M303.995 317.315C326.594 317.315 344.966 299.467 344.966 277.421C344.966 255.376 326.636 237.528 303.995 237.528C281.355 237.528 263.066 255.376 263.066 277.421C263.066 299.467 281.396 317.315 303.995 317.315ZM244.945 277.462C244.945 245.718 271.352 219.924 303.995 219.924C336.596 219.924 363.045 245.718 363.045 277.462C363.045 309.206 336.596 335 303.995 335C271.352 335 244.945 309.206 244.945 277.462Z" fill="#3563E9"/>
<path d="M290.938 211.693L262.229 155.825C258.463 149.142 251.139 144.538 242.727 144.538H223.979C220.338 144.538 217.367 147.472 217.367 151.058C217.367 154.644 220.338 157.496 223.979 157.496L242.727 157.415C245.866 157.415 249.381 159.493 250.721 162.508L277.755 216.134L290.938 211.693Z" fill="#3563E9"/>
</svg>
