<svg width="891" height="220" viewBox="0 0 891 220" fill="none" xmlns="http://www.w3.org/2000/svg">
<path d="M131.558 19.7488C128.535 8.4026 117.899 0 105.34 0C90.3346 0 78.2148 11.7476 78.2148 26.3317C78.2148 28.7936 78.5172 31.0414 79.1492 33.2358H90.0323C90.8293 35.0554 91.7087 36.0991 91.7087 36.0991C94.9791 40.7018 100.448 43.6721 106.632 43.6721C116.663 43.6721 124.825 35.7244 124.825 25.9571C124.825 23.7092 125.402 21.6755 124.44 19.7488H131.558Z" fill="#3563E9"/>
<path d="M130.816 177.231C127.958 180.04 124.028 182.208 119.603 182.208L119.576 124.808L160.36 113.408L170.583 132.997L130.816 177.231Z" fill="#3563E9"/>
<path d="M96.5731 45.9467C93.8799 43.0299 90.0048 41.1835 85.6351 41.1835C80.9906 41.1835 76.8407 43.2708 74.175 46.5622L41.8007 94.7032C40.4816 96.844 39.7395 99.3594 39.7395 102.009C39.7395 106.986 42.3229 111.321 46.2254 113.863L89.6475 137.332V177.257C89.6475 182.904 94.3471 187.506 100.146 187.506C105.917 187.506 110.644 182.904 110.644 177.257V127.404C110.644 127.404 112.018 119.456 102.757 115.121L75.6865 101.313L95.4189 71.9841L105.89 87.9865C107.978 91.2244 110.809 92.4821 113.392 92.4286L140.27 92.3216C151.208 92.3216 151.208 78.46 140.27 78.5135H118.477L96.5731 45.9467Z" fill="#3563E9"/>
<path d="M215.572 111.375C216.012 111.803 216.231 112.311 216.231 113.007C216.231 114.265 215.16 115.308 213.868 115.308C213.511 115.308 213.291 115.308 213.016 115.201C208.372 113.274 205.431 112.07 200.017 112.07C196.444 112.07 192.02 113.274 186.908 117.288L182.181 108.19C188.09 106.477 192.926 104.952 197.983 104.952C206.063 104.952 210.295 106.585 215.572 111.375Z" fill="#3563E9"/>
<path d="M35.0125 118.386L80.5784 142.844L80.6883 152.665L28.6366 124.754C24.8715 122.881 19.8148 121.784 16.2146 121.784C10.8556 121.784 7.85993 122.988 3.24289 124.915C2.94059 125.022 2.69325 125.022 2.39094 125.022C1.09927 125.022 0 123.978 0 122.721C0 122.052 0.274809 121.517 0.687043 121.088C5.96366 116.272 11.3502 114.666 19.4026 114.666C23.5524 114.666 28.5542 115.148 35.0125 118.386Z" fill="#3563E9"/>
<path d="M39.2448 208.379C54.0853 208.379 66.1226 196.658 66.1226 182.181C66.1226 167.704 54.0853 155.983 39.2448 155.983C24.4043 155.983 12.367 167.704 12.367 182.181C12.367 196.658 24.4043 208.379 39.2448 208.379ZM0.467163 182.208C0.467163 161.362 17.836 144.423 39.2448 144.423C60.6811 144.423 78.05 161.362 78.05 182.208C78.05 203.054 60.6811 219.993 39.2448 219.993C17.836 219.993 0.467163 203.054 0.467163 182.208Z" fill="#3563E9"/>
<path d="M199.632 208.379C214.473 208.379 226.537 196.658 226.537 182.181C226.537 167.704 214.5 155.983 199.632 155.983C184.764 155.983 172.754 167.704 172.754 182.181C172.754 196.658 184.792 208.379 199.632 208.379ZM160.854 182.208C160.854 161.362 178.196 144.423 199.632 144.423C221.041 144.423 238.41 161.362 238.41 182.208C238.41 203.054 221.041 219.993 199.632 219.993C178.196 219.993 160.854 203.054 160.854 182.208Z" fill="#3563E9"/>
<path d="M191.058 139.018L172.205 102.33C169.731 97.9411 164.922 94.9172 159.398 94.9172H147.086C144.695 94.9172 142.744 96.844 142.744 99.1988C142.744 101.554 144.695 103.427 147.086 103.427L159.398 103.373C161.459 103.373 163.768 104.738 164.647 106.718L182.401 141.934L191.058 139.018Z" fill="#3563E9"/>
<path d="M307.281 73.4062C307.031 70.8854 305.958 68.9271 304.063 67.5312C302.167 66.1354 299.594 65.4375 296.344 65.4375C294.135 65.4375 292.271 65.75 290.75 66.375C289.229 66.9792 288.063 67.8229 287.25 68.9062C286.458 69.9896 286.063 71.2188 286.063 72.5938C286.021 73.7396 286.26 74.7396 286.781 75.5937C287.323 76.4479 288.063 77.1875 289 77.8125C289.938 78.4167 291.021 78.9479 292.25 79.4062C293.479 79.8437 294.792 80.2187 296.188 80.5312L301.938 81.9062C304.729 82.5312 307.292 83.3646 309.625 84.4062C311.958 85.4479 313.979 86.7292 315.688 88.25C317.396 89.7708 318.719 91.5625 319.656 93.625C320.615 95.6875 321.104 98.0521 321.125 100.719C321.104 104.635 320.104 108.031 318.125 110.906C316.167 113.76 313.333 115.979 309.625 117.562C305.938 119.125 301.49 119.906 296.281 119.906C291.115 119.906 286.615 119.115 282.781 117.531C278.969 115.948 275.99 113.604 273.844 110.5C271.719 107.375 270.604 103.51 270.5 98.9062H283.594C283.74 101.052 284.354 102.844 285.438 104.281C286.542 105.698 288.01 106.771 289.844 107.5C291.698 108.208 293.792 108.562 296.125 108.562C298.417 108.562 300.406 108.229 302.094 107.562C303.802 106.896 305.125 105.969 306.063 104.781C307 103.594 307.469 102.229 307.469 100.687C307.469 99.25 307.042 98.0417 306.188 97.0625C305.354 96.0833 304.125 95.25 302.5 94.5625C300.896 93.875 298.927 93.25 296.594 92.6875L289.625 90.9375C284.229 89.625 279.969 87.5729 276.844 84.7812C273.719 81.9896 272.167 78.2292 272.188 73.5C272.167 69.625 273.198 66.2396 275.281 63.3438C277.385 60.4479 280.271 58.1875 283.938 56.5625C287.604 54.9375 291.771 54.125 296.438 54.125C301.188 54.125 305.333 54.9375 308.875 56.5625C312.438 58.1875 315.208 60.4479 317.188 63.3438C319.167 66.2396 320.188 69.5937 320.25 73.4062H307.281ZM351.852 119.938C346.914 119.938 342.664 118.938 339.102 116.938C335.56 114.917 332.831 112.062 330.914 108.375C328.997 104.667 328.039 100.281 328.039 95.2187C328.039 90.2812 328.997 85.9479 330.914 82.2188C332.831 78.4896 335.529 75.5833 339.008 73.5C342.508 71.4167 346.612 70.375 351.32 70.375C354.487 70.375 357.435 70.8854 360.164 71.9062C362.914 72.9062 365.31 74.4167 367.352 76.4375C369.414 78.4583 371.018 81 372.164 84.0625C373.31 87.1042 373.883 90.6667 373.883 94.75V98.4062H333.352V90.1562H361.352C361.352 88.2396 360.935 86.5417 360.102 85.0625C359.268 83.5833 358.112 82.4271 356.633 81.5937C355.174 80.7396 353.477 80.3125 351.539 80.3125C349.518 80.3125 347.727 80.7812 346.164 81.7187C344.622 82.6354 343.414 83.875 342.539 85.4375C341.664 86.9792 341.216 88.6979 341.195 90.5937V98.4375C341.195 100.812 341.633 102.865 342.508 104.594C343.404 106.323 344.664 107.656 346.289 108.594C347.914 109.531 349.841 110 352.07 110C353.549 110 354.904 109.792 356.133 109.375C357.362 108.958 358.414 108.333 359.289 107.5C360.164 106.667 360.831 105.646 361.289 104.438L373.602 105.25C372.977 108.208 371.695 110.792 369.758 113C367.841 115.187 365.362 116.896 362.32 118.125C359.299 119.333 355.81 119.938 351.852 119.938ZM391.695 119L378.633 71H392.102L399.539 103.25H399.977L407.727 71H420.945L428.82 103.063H429.227L436.539 71H449.977L436.945 119H422.852L414.602 88.8125H414.008L405.758 119H391.695ZM470.766 119.906C467.703 119.906 464.974 119.375 462.578 118.312C460.182 117.229 458.286 115.635 456.891 113.531C455.516 111.406 454.828 108.76 454.828 105.594C454.828 102.927 455.318 100.687 456.297 98.875C457.276 97.0625 458.609 95.6042 460.297 94.5C461.984 93.3958 463.901 92.5625 466.047 92C468.214 91.4375 470.484 91.0417 472.859 90.8125C475.651 90.5208 477.901 90.25 479.609 90C481.318 89.7292 482.557 89.3333 483.328 88.8125C484.099 88.2917 484.484 87.5208 484.484 86.5V86.3125C484.484 84.3333 483.859 82.8021 482.609 81.7187C481.38 80.6354 479.63 80.0937 477.359 80.0937C474.964 80.0937 473.057 80.625 471.641 81.6875C470.224 82.7292 469.286 84.0417 468.828 85.625L456.516 84.625C457.141 81.7083 458.37 79.1875 460.203 77.0625C462.036 74.9167 464.401 73.2708 467.297 72.125C470.214 70.9583 473.589 70.375 477.422 70.375C480.089 70.375 482.641 70.6875 485.078 71.3125C487.536 71.9375 489.714 72.9062 491.609 74.2187C493.526 75.5312 495.036 77.2187 496.141 79.2812C497.245 81.3229 497.797 83.7708 497.797 86.625V119H485.172V112.344H484.797C484.026 113.844 482.995 115.167 481.703 116.312C480.411 117.437 478.859 118.323 477.047 118.969C475.234 119.594 473.141 119.906 470.766 119.906ZM474.578 110.719C476.536 110.719 478.266 110.333 479.766 109.562C481.266 108.771 482.443 107.708 483.297 106.375C484.151 105.042 484.578 103.531 484.578 101.844V96.75C484.161 97.0208 483.589 97.2708 482.859 97.5C482.151 97.7083 481.349 97.9062 480.453 98.0937C479.557 98.2604 478.661 98.4167 477.766 98.5625C476.87 98.6875 476.057 98.8021 475.328 98.9062C473.766 99.1354 472.401 99.5 471.234 100C470.068 100.5 469.161 101.177 468.516 102.031C467.87 102.865 467.547 103.906 467.547 105.156C467.547 106.969 468.203 108.354 469.516 109.312C470.849 110.25 472.536 110.719 474.578 110.719ZM528.742 55H545.43L563.055 98H563.805L581.43 55H598.117V119H584.992V77.3437H584.461L567.898 118.687H558.961L542.398 77.1875H541.867V119H528.742V55ZM630.703 119.938C625.849 119.938 621.651 118.906 618.109 116.844C614.589 114.76 611.87 111.865 609.953 108.156C608.036 104.427 607.078 100.104 607.078 95.1875C607.078 90.2292 608.036 85.8958 609.953 82.1875C611.87 78.4583 614.589 75.5625 618.109 73.5C621.651 71.4167 625.849 70.375 630.703 70.375C635.557 70.375 639.745 71.4167 643.266 73.5C646.807 75.5625 649.536 78.4583 651.453 82.1875C653.37 85.8958 654.328 90.2292 654.328 95.1875C654.328 100.104 653.37 104.427 651.453 108.156C649.536 111.865 646.807 114.76 643.266 116.844C639.745 118.906 635.557 119.938 630.703 119.938ZM630.766 109.625C632.974 109.625 634.818 109 636.297 107.75C637.776 106.479 638.891 104.75 639.641 102.562C640.411 100.375 640.797 97.8854 640.797 95.0937C640.797 92.3021 640.411 89.8125 639.641 87.625C638.891 85.4375 637.776 83.7083 636.297 82.4375C634.818 81.1667 632.974 80.5312 630.766 80.5312C628.536 80.5312 626.661 81.1667 625.141 82.4375C623.641 83.7083 622.505 85.4375 621.734 87.625C620.984 89.8125 620.609 92.3021 620.609 95.0937C620.609 97.8854 620.984 100.375 621.734 102.562C622.505 104.75 623.641 106.479 625.141 107.75C626.661 109 628.536 109.625 630.766 109.625ZM688.516 71V81H659.609V71H688.516ZM666.172 59.5H679.484V104.25C679.484 105.479 679.672 106.437 680.047 107.125C680.422 107.792 680.943 108.26 681.609 108.531C682.297 108.802 683.089 108.937 683.984 108.937C684.609 108.937 685.234 108.885 685.859 108.781C686.484 108.656 686.964 108.562 687.297 108.5L689.391 118.406C688.724 118.615 687.786 118.854 686.578 119.125C685.37 119.417 683.901 119.594 682.172 119.656C678.964 119.781 676.151 119.354 673.734 118.375C671.339 117.396 669.474 115.875 668.141 113.812C666.807 111.75 666.151 109.146 666.172 106V59.5ZM718.359 119.938C713.505 119.938 709.307 118.906 705.766 116.844C702.245 114.76 699.526 111.865 697.609 108.156C695.693 104.427 694.734 100.104 694.734 95.1875C694.734 90.2292 695.693 85.8958 697.609 82.1875C699.526 78.4583 702.245 75.5625 705.766 73.5C709.307 71.4167 713.505 70.375 718.359 70.375C723.214 70.375 727.401 71.4167 730.922 73.5C734.464 75.5625 737.193 78.4583 739.109 82.1875C741.026 85.8958 741.984 90.2292 741.984 95.1875C741.984 100.104 741.026 104.427 739.109 108.156C737.193 111.865 734.464 114.76 730.922 116.844C727.401 118.906 723.214 119.938 718.359 119.938ZM718.422 109.625C720.63 109.625 722.474 109 723.953 107.75C725.432 106.479 726.547 104.75 727.297 102.562C728.068 100.375 728.453 97.8854 728.453 95.0937C728.453 92.3021 728.068 89.8125 727.297 87.625C726.547 85.4375 725.432 83.7083 723.953 82.4375C722.474 81.1667 720.63 80.5312 718.422 80.5312C716.193 80.5312 714.318 81.1667 712.797 82.4375C711.297 83.7083 710.161 85.4375 709.391 87.625C708.641 89.8125 708.266 92.3021 708.266 95.0937C708.266 97.8854 708.641 100.375 709.391 102.562C710.161 104.75 711.297 106.479 712.797 107.75C714.318 109 716.193 109.625 718.422 109.625ZM750.641 119V71H763.547V79.375H764.047C764.922 76.3958 766.391 74.1458 768.453 72.625C770.516 71.0833 772.891 70.3125 775.578 70.3125C776.245 70.3125 776.964 70.3542 777.734 70.4375C778.505 70.5208 779.182 70.6354 779.766 70.7812V82.5937C779.141 82.4062 778.276 82.2396 777.172 82.0937C776.068 81.9479 775.057 81.875 774.141 81.875C772.182 81.875 770.432 82.3021 768.891 83.1562C767.37 83.9896 766.161 85.1562 765.266 86.6562C764.391 88.1562 763.953 89.8854 763.953 91.8438V119H750.641ZM820.797 55V119H807.266V55H820.797ZM854.617 119H831.93V55H854.805C861.242 55 866.784 56.2812 871.43 58.8438C876.076 61.3854 879.648 65.0417 882.148 69.8125C884.669 74.5833 885.93 80.2917 885.93 86.9375C885.93 93.6042 884.669 99.3333 882.148 104.125C879.648 108.917 876.055 112.594 871.367 115.156C866.701 117.719 861.117 119 854.617 119ZM845.461 107.406H854.055C858.055 107.406 861.419 106.698 864.148 105.281C866.898 103.844 868.961 101.625 870.336 98.625C871.732 95.6042 872.43 91.7083 872.43 86.9375C872.43 82.2083 871.732 78.3437 870.336 75.3438C868.961 72.3437 866.909 70.1354 864.18 68.7187C861.451 67.3021 858.086 66.5938 854.086 66.5938H845.461V107.406Z" fill="#3563E9"/>
<path d="M408.778 155.913C408.665 154.905 408.196 154.124 407.372 153.57C406.548 153.009 405.511 152.728 404.261 152.728C403.366 152.728 402.592 152.87 401.939 153.154C401.285 153.431 400.778 153.815 400.415 154.305C400.06 154.788 399.883 155.338 399.883 155.956C399.883 156.474 400.003 156.922 400.245 157.298C400.494 157.675 400.817 157.991 401.214 158.246C401.619 158.495 402.052 158.705 402.514 158.875C402.976 159.038 403.42 159.173 403.846 159.28L405.976 159.834C406.672 160.004 407.386 160.235 408.118 160.526C408.849 160.817 409.528 161.201 410.153 161.677C410.778 162.153 411.282 162.742 411.665 163.445C412.056 164.148 412.251 164.99 412.251 165.97C412.251 167.206 411.932 168.303 411.293 169.262C410.66 170.221 409.741 170.977 408.533 171.531C407.333 172.085 405.881 172.362 404.176 172.362C402.543 172.362 401.129 172.103 399.936 171.585C398.743 171.066 397.809 170.331 397.134 169.379C396.459 168.42 396.087 167.284 396.016 165.97H399.318C399.382 166.759 399.638 167.415 400.085 167.941C400.54 168.46 401.119 168.847 401.822 169.102C402.532 169.351 403.31 169.475 404.155 169.475C405.085 169.475 405.913 169.33 406.637 169.038C407.369 168.74 407.944 168.328 408.363 167.803C408.782 167.27 408.991 166.648 408.991 165.938C408.991 165.292 408.807 164.763 408.437 164.351C408.075 163.939 407.582 163.598 406.957 163.328C406.339 163.058 405.639 162.82 404.858 162.614L402.28 161.911C400.533 161.435 399.148 160.736 398.125 159.812C397.109 158.889 396.601 157.668 396.601 156.148C396.601 154.891 396.942 153.793 397.624 152.856C398.306 151.918 399.229 151.19 400.394 150.672C401.559 150.146 402.873 149.884 404.336 149.884C405.813 149.884 407.116 150.143 408.246 150.661C409.382 151.18 410.277 151.893 410.93 152.803C411.584 153.705 411.925 154.741 411.953 155.913H408.778ZM422.822 172.33C421.288 172.33 419.949 171.979 418.806 171.276C417.662 170.572 416.775 169.589 416.142 168.325C415.51 167.06 415.194 165.583 415.194 163.893C415.194 162.195 415.51 160.711 416.142 159.44C416.775 158.168 417.662 157.181 418.806 156.478C419.949 155.775 421.288 155.423 422.822 155.423C424.356 155.423 425.695 155.775 426.839 156.478C427.982 157.181 428.87 158.168 429.502 159.44C430.134 160.711 430.45 162.195 430.45 163.893C430.45 165.583 430.134 167.06 429.502 168.325C428.87 169.589 427.982 170.572 426.839 171.276C425.695 171.979 424.356 172.33 422.822 172.33ZM422.833 169.656C423.827 169.656 424.651 169.393 425.304 168.868C425.958 168.342 426.441 167.643 426.753 166.769C427.073 165.896 427.233 164.933 427.233 163.882C427.233 162.838 427.073 161.879 426.753 161.006C426.441 160.125 425.958 159.418 425.304 158.886C424.651 158.353 423.827 158.087 422.833 158.087C421.831 158.087 421 158.353 420.34 158.886C419.687 159.418 419.2 160.125 418.88 161.006C418.568 161.879 418.412 162.838 418.412 163.882C418.412 164.933 418.568 165.896 418.88 166.769C419.2 167.643 419.687 168.342 420.34 168.868C421 169.393 421.831 169.656 422.833 169.656ZM437.191 150.182V172H434.006V150.182H437.191ZM451.842 165.214V155.636H455.038V172H451.906V169.166H451.736C451.359 170.04 450.755 170.768 449.924 171.35C449.101 171.925 448.074 172.213 446.846 172.213C445.794 172.213 444.864 171.982 444.054 171.521C443.252 171.052 442.62 170.359 442.158 169.443C441.704 168.527 441.476 167.394 441.476 166.045V155.636H444.662V165.661C444.662 166.776 444.971 167.664 445.589 168.325C446.206 168.985 447.009 169.315 447.996 169.315C448.593 169.315 449.186 169.166 449.775 168.868C450.372 168.57 450.866 168.119 451.256 167.515C451.654 166.911 451.849 166.144 451.842 165.214ZM471.58 159.631L468.693 160.143C468.572 159.773 468.381 159.422 468.118 159.088C467.862 158.754 467.514 158.481 467.074 158.268C466.633 158.055 466.083 157.948 465.422 157.948C464.521 157.948 463.768 158.151 463.164 158.555C462.56 158.953 462.258 159.468 462.258 160.1C462.258 160.647 462.461 161.087 462.866 161.421C463.271 161.755 463.924 162.028 464.826 162.241L467.425 162.838C468.931 163.186 470.053 163.722 470.792 164.447C471.53 165.171 471.9 166.112 471.9 167.27C471.9 168.25 471.616 169.124 471.047 169.891C470.486 170.651 469.702 171.247 468.693 171.68C467.692 172.114 466.53 172.33 465.209 172.33C463.377 172.33 461.882 171.94 460.724 171.158C459.567 170.37 458.856 169.251 458.594 167.803L461.672 167.334C461.864 168.136 462.258 168.744 462.855 169.156C463.452 169.56 464.229 169.763 465.188 169.763C466.232 169.763 467.067 169.546 467.692 169.113C468.317 168.673 468.629 168.136 468.629 167.504C468.629 166.993 468.437 166.563 468.054 166.215C467.677 165.867 467.099 165.604 466.317 165.427L463.547 164.82C462.021 164.472 460.891 163.918 460.16 163.158C459.435 162.398 459.073 161.435 459.073 160.271C459.073 159.305 459.343 158.46 459.883 157.735C460.422 157.011 461.168 156.446 462.12 156.041C463.072 155.629 464.162 155.423 465.391 155.423C467.159 155.423 468.551 155.807 469.567 156.574C470.582 157.334 471.253 158.353 471.58 159.631ZM475.402 172V155.636H478.587V172H475.402ZM477.011 153.112C476.457 153.112 475.981 152.927 475.583 152.558C475.193 152.181 474.997 151.734 474.997 151.215C474.997 150.69 475.193 150.242 475.583 149.873C475.981 149.496 476.457 149.308 477.011 149.308C477.565 149.308 478.037 149.496 478.428 149.873C478.825 150.242 479.024 150.69 479.024 151.215C479.024 151.734 478.825 152.181 478.428 152.558C478.037 152.927 477.565 153.112 477.011 153.112ZM491.068 150.182H495.063L502.009 167.142H502.265L509.211 150.182H513.206V172H510.074V156.212H509.871L503.437 171.968H500.837L494.402 156.201H494.2V172H491.068V150.182ZM528.102 165.214V155.636H531.298V172H528.166V169.166H527.995C527.619 170.04 527.015 170.768 526.184 171.35C525.36 171.925 524.334 172.213 523.105 172.213C522.054 172.213 521.124 171.982 520.314 171.521C519.512 171.052 518.88 170.359 518.418 169.443C517.963 168.527 517.736 167.394 517.736 166.045V155.636H520.921V165.661C520.921 166.776 521.23 167.664 521.848 168.325C522.466 168.985 523.269 169.315 524.256 169.315C524.853 169.315 525.446 169.166 526.035 168.868C526.632 168.57 527.125 168.119 527.516 167.515C527.914 166.911 528.109 166.144 528.102 165.214ZM541.704 172.32C540.383 172.32 539.204 171.982 538.167 171.308C537.137 170.626 536.327 169.656 535.738 168.399C535.155 167.135 534.864 165.619 534.864 163.85C534.864 162.082 535.159 160.569 535.748 159.312C536.345 158.055 537.162 157.092 538.199 156.425C539.236 155.757 540.411 155.423 541.725 155.423C542.741 155.423 543.557 155.594 544.175 155.935C544.8 156.268 545.283 156.659 545.624 157.107C545.972 157.554 546.242 157.948 546.434 158.289H546.625V150.182H549.811V172H546.7V169.454H546.434C546.242 169.802 545.965 170.2 545.603 170.647C545.248 171.094 544.758 171.485 544.133 171.819C543.508 172.153 542.698 172.32 541.704 172.32ZM542.407 169.603C543.323 169.603 544.097 169.362 544.729 168.879C545.368 168.388 545.851 167.71 546.178 166.844C546.512 165.977 546.679 164.969 546.679 163.818C546.679 162.682 546.515 161.687 546.189 160.835C545.862 159.983 545.383 159.319 544.75 158.843C544.118 158.367 543.337 158.129 542.407 158.129C541.448 158.129 540.649 158.378 540.01 158.875C539.37 159.372 538.888 160.05 538.561 160.91C538.241 161.769 538.081 162.739 538.081 163.818C538.081 164.912 538.245 165.896 538.571 166.769C538.898 167.643 539.381 168.335 540.02 168.847C540.667 169.351 541.462 169.603 542.407 169.603ZM559.119 172.362C558.082 172.362 557.145 172.17 556.307 171.787C555.469 171.396 554.805 170.832 554.315 170.093C553.832 169.354 553.59 168.449 553.59 167.376C553.59 166.453 553.768 165.693 554.123 165.097C554.478 164.5 554.957 164.028 555.561 163.68C556.165 163.332 556.839 163.069 557.585 162.891C558.331 162.714 559.091 162.579 559.865 162.487C560.845 162.373 561.641 162.281 562.251 162.21C562.862 162.131 563.306 162.007 563.583 161.837C563.86 161.666 563.998 161.389 563.998 161.006V160.931C563.998 160.001 563.736 159.28 563.21 158.768C562.692 158.257 561.918 158.001 560.888 158.001C559.815 158.001 558.97 158.239 558.352 158.715C557.741 159.184 557.319 159.706 557.084 160.281L554.091 159.599C554.446 158.605 554.964 157.803 555.646 157.192C556.335 156.574 557.127 156.126 558.022 155.849C558.917 155.565 559.858 155.423 560.845 155.423C561.498 155.423 562.191 155.501 562.922 155.658C563.661 155.807 564.35 156.084 564.989 156.489C565.636 156.893 566.165 157.472 566.577 158.225C566.989 158.971 567.195 159.94 567.195 161.134V172H564.084V169.763H563.956C563.75 170.175 563.441 170.58 563.029 170.977C562.617 171.375 562.088 171.705 561.442 171.968C560.795 172.231 560.021 172.362 559.119 172.362ZM559.812 169.805C560.692 169.805 561.445 169.631 562.07 169.283C562.702 168.935 563.182 168.481 563.508 167.92C563.842 167.352 564.009 166.744 564.009 166.098V163.989C563.896 164.102 563.675 164.209 563.349 164.308C563.029 164.401 562.663 164.482 562.251 164.553C561.839 164.617 561.438 164.678 561.047 164.734C560.657 164.784 560.33 164.827 560.067 164.862C559.449 164.94 558.885 165.072 558.373 165.256C557.869 165.441 557.464 165.707 557.159 166.055C556.861 166.396 556.712 166.851 556.712 167.419C556.712 168.207 557.003 168.804 557.585 169.209C558.168 169.607 558.91 169.805 559.812 169.805ZM574.623 162.284V172H571.437V150.182H574.58V158.3H574.782C575.166 157.419 575.752 156.719 576.54 156.201C577.329 155.683 578.358 155.423 579.63 155.423C580.752 155.423 581.732 155.654 582.57 156.116C583.415 156.577 584.069 157.266 584.53 158.183C584.999 159.092 585.233 160.228 585.233 161.592V172H582.048V161.975C582.048 160.775 581.739 159.844 581.121 159.184C580.503 158.516 579.644 158.183 578.543 158.183C577.79 158.183 577.116 158.342 576.519 158.662C575.929 158.982 575.464 159.45 575.123 160.068C574.79 160.679 574.623 161.418 574.623 162.284ZM609.579 155.913C609.465 154.905 608.997 154.124 608.173 153.57C607.349 153.009 606.312 152.728 605.062 152.728C604.167 152.728 603.393 152.87 602.74 153.154C602.086 153.431 601.578 153.815 601.216 154.305C600.861 154.788 600.684 155.338 600.684 155.956C600.684 156.474 600.804 156.922 601.046 157.298C601.294 157.675 601.617 157.991 602.015 158.246C602.42 158.495 602.853 158.705 603.315 158.875C603.777 159.038 604.22 159.173 604.647 159.28L606.777 159.834C607.473 160.004 608.187 160.235 608.919 160.526C609.65 160.817 610.328 161.201 610.953 161.677C611.578 162.153 612.083 162.742 612.466 163.445C612.857 164.148 613.052 164.99 613.052 165.97C613.052 167.206 612.733 168.303 612.093 169.262C611.461 170.221 610.541 170.977 609.334 171.531C608.134 172.085 606.681 172.362 604.977 172.362C603.343 172.362 601.93 172.103 600.737 171.585C599.544 171.066 598.61 170.331 597.935 169.379C597.26 168.42 596.887 167.284 596.816 165.97H600.119C600.183 166.759 600.438 167.415 600.886 167.941C601.34 168.46 601.919 168.847 602.622 169.102C603.333 169.351 604.11 169.475 604.956 169.475C605.886 169.475 606.713 169.33 607.438 169.038C608.169 168.74 608.745 168.328 609.164 167.803C609.583 167.27 609.792 166.648 609.792 165.938C609.792 165.292 609.608 164.763 609.238 164.351C608.876 163.939 608.382 163.598 607.757 163.328C607.139 163.058 606.44 162.82 605.659 162.614L603.081 161.911C601.333 161.435 599.948 160.736 598.926 159.812C597.91 158.889 597.402 157.668 597.402 156.148C597.402 154.891 597.743 153.793 598.425 152.856C599.107 151.918 600.03 151.19 601.195 150.672C602.36 150.146 603.674 149.884 605.137 149.884C606.614 149.884 607.917 150.143 609.046 150.661C610.183 151.18 611.078 151.893 611.731 152.803C612.385 153.705 612.725 154.741 612.754 155.913H609.579ZM623.783 172.33C622.171 172.33 620.782 171.986 619.617 171.297C618.46 170.601 617.565 169.624 616.933 168.367C616.308 167.103 615.995 165.622 615.995 163.925C615.995 162.249 616.308 160.771 616.933 159.493C617.565 158.214 618.445 157.217 619.575 156.499C620.711 155.782 622.039 155.423 623.559 155.423C624.482 155.423 625.377 155.576 626.244 155.881C627.11 156.187 627.888 156.666 628.577 157.32C629.266 157.973 629.809 158.822 630.207 159.866C630.604 160.903 630.803 162.163 630.803 163.648V164.777H617.796V162.391H627.682C627.682 161.553 627.511 160.81 627.171 160.164C626.83 159.511 626.35 158.996 625.732 158.619C625.122 158.243 624.404 158.055 623.58 158.055C622.685 158.055 621.904 158.275 621.237 158.715C620.576 159.148 620.065 159.717 619.703 160.42C619.347 161.116 619.17 161.872 619.17 162.689V164.553C619.17 165.647 619.362 166.577 619.745 167.344C620.136 168.112 620.679 168.697 621.375 169.102C622.071 169.5 622.884 169.699 623.815 169.699C624.418 169.699 624.969 169.614 625.466 169.443C625.963 169.266 626.393 169.003 626.755 168.655C627.117 168.307 627.394 167.877 627.586 167.366L630.601 167.909C630.359 168.797 629.926 169.575 629.301 170.242C628.683 170.903 627.906 171.418 626.968 171.787C626.038 172.149 624.976 172.33 623.783 172.33ZM637.856 172L633.041 155.636H636.332L639.539 167.653H639.699L642.916 155.636H646.208L649.404 167.6H649.564L652.749 155.636H656.041L651.237 172H647.987L644.663 160.185H644.418L641.095 172H637.856ZM663.826 172.362C662.789 172.362 661.852 172.17 661.014 171.787C660.176 171.396 659.512 170.832 659.022 170.093C658.539 169.354 658.297 168.449 658.297 167.376C658.297 166.453 658.475 165.693 658.83 165.097C659.185 164.5 659.664 164.028 660.268 163.68C660.872 163.332 661.546 163.069 662.292 162.891C663.038 162.714 663.798 162.579 664.572 162.487C665.552 162.373 666.348 162.281 666.958 162.21C667.569 162.131 668.013 162.007 668.29 161.837C668.567 161.666 668.706 161.389 668.706 161.006V160.931C668.706 160.001 668.443 159.28 667.917 158.768C667.399 158.257 666.625 158.001 665.595 158.001C664.522 158.001 663.677 158.239 663.059 158.715C662.448 159.184 662.026 159.706 661.791 160.281L658.798 159.599C659.153 158.605 659.671 157.803 660.353 157.192C661.042 156.574 661.834 156.126 662.729 155.849C663.624 155.565 664.565 155.423 665.552 155.423C666.206 155.423 666.898 155.501 667.63 155.658C668.368 155.807 669.057 156.084 669.696 156.489C670.343 156.893 670.872 157.472 671.284 158.225C671.696 158.971 671.902 159.94 671.902 161.134V172H668.791V169.763H668.663C668.457 170.175 668.148 170.58 667.736 170.977C667.324 171.375 666.795 171.705 666.149 171.968C665.502 172.231 664.728 172.362 663.826 172.362ZM664.519 169.805C665.399 169.805 666.152 169.631 666.777 169.283C667.409 168.935 667.889 168.481 668.215 167.92C668.549 167.352 668.716 166.744 668.716 166.098V163.989C668.603 164.102 668.382 164.209 668.056 164.308C667.736 164.401 667.37 164.482 666.958 164.553C666.546 164.617 666.145 164.678 665.755 164.734C665.364 164.784 665.037 164.827 664.774 164.862C664.157 164.94 663.592 165.072 663.081 165.256C662.576 165.441 662.171 165.707 661.866 166.055C661.568 166.396 661.419 166.851 661.419 167.419C661.419 168.207 661.71 168.804 662.292 169.209C662.875 169.607 663.617 169.805 664.519 169.805ZM684.339 150.182H688.334L695.28 167.142H695.536L702.482 150.182H706.477V172H703.345V156.212H703.143L696.708 171.968H694.109L687.674 156.201H687.472V172H684.339V150.182ZM717.9 172.33C716.366 172.33 715.027 171.979 713.884 171.276C712.741 170.572 711.853 169.589 711.221 168.325C710.589 167.06 710.272 165.583 710.272 163.893C710.272 162.195 710.589 160.711 711.221 159.44C711.853 158.168 712.741 157.181 713.884 156.478C715.027 155.775 716.366 155.423 717.9 155.423C719.434 155.423 720.773 155.775 721.917 156.478C723.06 157.181 723.948 158.168 724.58 159.44C725.212 160.711 725.528 162.195 725.528 163.893C725.528 165.583 725.212 167.06 724.58 168.325C723.948 169.589 723.06 170.572 721.917 171.276C720.773 171.979 719.434 172.33 717.9 172.33ZM717.911 169.656C718.905 169.656 719.729 169.393 720.383 168.868C721.036 168.342 721.519 167.643 721.831 166.769C722.151 165.896 722.311 164.933 722.311 163.882C722.311 162.838 722.151 161.879 721.831 161.006C721.519 160.125 721.036 159.418 720.383 158.886C719.729 158.353 718.905 158.087 717.911 158.087C716.91 158.087 716.079 158.353 715.418 158.886C714.765 159.418 714.278 160.125 713.959 161.006C713.646 161.879 713.49 162.838 713.49 163.882C713.49 164.933 713.646 165.896 713.959 166.769C714.278 167.643 714.765 168.342 715.418 168.868C716.079 169.393 716.91 169.656 717.911 169.656ZM736.722 155.636V158.193H727.784V155.636H736.722ZM730.181 151.716H733.366V167.195C733.366 167.813 733.459 168.278 733.643 168.591C733.828 168.896 734.066 169.106 734.357 169.219C734.655 169.326 734.979 169.379 735.327 169.379C735.582 169.379 735.806 169.362 735.998 169.326C736.19 169.29 736.339 169.262 736.445 169.241L737.021 171.872C736.836 171.943 736.573 172.014 736.232 172.085C735.891 172.163 735.465 172.206 734.954 172.213C734.116 172.227 733.334 172.078 732.61 171.766C731.886 171.453 731.3 170.97 730.852 170.317C730.405 169.663 730.181 168.843 730.181 167.856V151.716ZM746.963 172.33C745.429 172.33 744.09 171.979 742.946 171.276C741.803 170.572 740.915 169.589 740.283 168.325C739.651 167.06 739.335 165.583 739.335 163.893C739.335 162.195 739.651 160.711 740.283 159.44C740.915 158.168 741.803 157.181 742.946 156.478C744.09 155.775 745.429 155.423 746.963 155.423C748.497 155.423 749.836 155.775 750.979 156.478C752.123 157.181 753.01 158.168 753.642 159.44C754.275 160.711 754.591 162.195 754.591 163.893C754.591 165.583 754.275 167.06 753.642 168.325C753.01 169.589 752.123 170.572 750.979 171.276C749.836 171.979 748.497 172.33 746.963 172.33ZM746.973 169.656C747.968 169.656 748.792 169.393 749.445 168.868C750.098 168.342 750.581 167.643 750.894 166.769C751.214 165.896 751.373 164.933 751.373 163.882C751.373 162.838 751.214 161.879 750.894 161.006C750.581 160.125 750.098 159.418 749.445 158.886C748.792 158.353 747.968 158.087 746.973 158.087C745.972 158.087 745.141 158.353 744.481 158.886C743.827 159.418 743.341 160.125 743.021 161.006C742.709 161.879 742.552 162.838 742.552 163.882C742.552 164.933 742.709 165.896 743.021 166.769C743.341 167.643 743.827 168.342 744.481 168.868C745.141 169.393 745.972 169.656 746.973 169.656ZM758.146 172V155.636H761.225V158.236H761.396C761.694 157.355 762.219 156.663 762.972 156.158C763.732 155.647 764.592 155.391 765.55 155.391C765.749 155.391 765.984 155.398 766.253 155.413C766.53 155.427 766.747 155.445 766.903 155.466V158.513C766.775 158.477 766.548 158.438 766.222 158.396C765.895 158.346 765.568 158.321 765.241 158.321C764.489 158.321 763.817 158.481 763.228 158.8C762.646 159.113 762.184 159.55 761.843 160.111C761.502 160.665 761.332 161.297 761.332 162.007V172H758.146Z" fill="black"/>
<line x1="299" y1="164.5" x2="381" y2="164.5" stroke="black" stroke-width="3"/>
<line x1="776" y1="164.5" x2="858" y2="164.5" stroke="black" stroke-width="3"/>
</svg>
