<svg width="601" height="486" viewBox="0 0 601 486" fill="none" xmlns="http://www.w3.org/2000/svg">
<path d="M319.334 30.073C314.73 12.7953 298.535 0 279.409 0C256.559 0 238.104 17.8889 238.104 40.0973C238.104 43.8462 238.564 47.2692 239.527 50.6106H256.099C257.313 53.3816 258.652 54.9708 258.652 54.9708C263.632 61.9797 271.96 66.5029 281.376 66.5029C296.651 66.5029 309.081 54.4003 309.081 39.5268C309.081 36.1039 309.959 33.0069 308.495 30.073H319.334Z" fill="#3563E9"/>
<path d="M318.204 269.883C313.852 274.161 307.867 277.462 301.129 277.462L301.087 190.055L363.192 172.695L378.76 202.524L318.204 269.883Z" fill="#3563E9"/>
<path d="M266.059 69.9666C261.958 65.5249 256.057 62.7132 249.403 62.7132C242.331 62.7132 236.011 65.8917 231.952 70.9038L182.653 144.212C180.644 147.472 179.514 151.302 179.514 155.336C179.514 162.916 183.448 169.517 189.391 173.388L255.513 209.125V269.923C255.513 278.521 262.67 285.53 271.5 285.53C280.288 285.53 287.486 278.521 287.486 269.923V194.007C287.486 194.007 289.579 181.905 275.476 175.304L234.254 154.277L264.302 109.616L280.246 133.984C283.427 138.914 287.737 140.83 291.671 140.748L332.6 140.585C349.256 140.585 349.256 119.477 332.6 119.558H299.413L266.059 69.9666Z" fill="#3563E9"/>
<path d="M447.268 169.599C447.938 170.251 448.272 171.025 448.272 172.084C448.272 174 446.64 175.589 444.673 175.589C444.129 175.589 443.794 175.589 443.376 175.426C436.303 172.492 431.825 170.658 423.581 170.658C418.141 170.658 411.403 172.492 403.619 178.604L396.421 164.749C405.418 162.142 412.784 159.819 420.484 159.819C432.788 159.819 439.233 162.305 447.268 169.599Z" fill="#3563E9"/>
<path d="M172.316 180.275L241.703 217.52L241.87 232.475L162.607 189.973C156.874 187.121 149.174 185.45 143.691 185.45C135.531 185.45 130.969 187.284 123.938 190.218C123.478 190.381 123.101 190.381 122.641 190.381C120.674 190.381 119 188.791 119 186.876C119 185.858 119.418 185.043 120.046 184.391C128.081 177.056 136.284 174.611 148.546 174.611C154.865 174.611 162.482 175.344 172.316 180.275Z" fill="#3563E9"/>
<path d="M178.761 317.315C201.36 317.315 219.69 299.467 219.69 277.421C219.69 255.376 201.36 237.528 178.761 237.528C156.162 237.528 137.832 255.376 137.832 277.421C137.832 299.467 156.162 317.315 178.761 317.315ZM119.711 277.462C119.711 245.718 146.16 219.924 178.761 219.924C211.404 219.924 237.853 245.718 237.853 277.462C237.853 309.206 211.404 335 178.761 335C146.16 335 119.711 309.206 119.711 277.462Z" fill="#3563E9"/>
<path d="M422.995 317.315C445.594 317.315 463.966 299.467 463.966 277.421C463.966 255.376 445.636 237.528 422.995 237.528C400.355 237.528 382.066 255.376 382.066 277.421C382.066 299.467 400.396 317.315 422.995 317.315ZM363.945 277.462C363.945 245.718 390.352 219.924 422.995 219.924C455.596 219.924 482.045 245.718 482.045 277.462C482.045 309.206 455.596 335 422.995 335C390.352 335 363.945 309.206 363.945 277.462Z" fill="#3563E9"/>
<path d="M409.938 211.693L381.229 155.825C377.463 149.142 370.139 144.538 361.727 144.538H342.979C339.338 144.538 336.367 147.472 336.367 151.058C336.367 154.644 339.338 157.496 342.979 157.496L361.727 157.415C364.866 157.415 368.381 159.493 369.721 162.508L396.755 216.134L409.938 211.693Z" fill="#3563E9"/>
<path d="M81.5182 384.214C81.3165 382.18 80.4508 380.6 78.9213 379.474C77.3917 378.348 75.3158 377.785 72.6936 377.785C70.9119 377.785 69.4075 378.037 68.1805 378.541C66.9535 379.029 66.0122 379.709 65.3566 380.583C64.7179 381.458 64.3985 382.449 64.3985 383.559C64.3649 384.483 64.5582 385.29 64.9784 385.979C65.4155 386.668 66.0122 387.265 66.7686 387.769C67.5249 388.257 68.399 388.685 69.3907 389.055C70.3824 389.408 71.4414 389.711 72.5676 389.963L77.2068 391.072C79.4591 391.576 81.5266 392.249 83.4092 393.089C85.2918 393.93 86.9222 394.963 88.3005 396.19C89.6788 397.417 90.7462 398.863 91.5026 400.527C92.2758 402.191 92.6708 404.099 92.6876 406.25C92.6708 409.41 91.864 412.15 90.2671 414.47C88.6871 416.773 86.4011 418.563 83.4092 419.84C80.434 421.101 76.8454 421.731 72.6432 421.731C68.4746 421.731 64.844 421.092 61.7512 419.815C58.6752 418.538 56.2715 416.647 54.5402 414.142C52.8257 411.621 51.9265 408.503 51.8424 404.788H62.4067C62.5244 406.519 63.0202 407.965 63.8943 409.125C64.7851 410.268 65.9701 411.133 67.4493 411.722C68.9453 412.293 70.6346 412.579 72.5171 412.579C74.3661 412.579 75.9713 412.31 77.3328 411.772C78.7111 411.234 79.7785 410.486 80.5349 409.528C81.2913 408.57 81.6695 407.469 81.6695 406.225C81.6695 405.065 81.3249 404.09 80.6357 403.3C79.9634 402.51 78.9717 401.838 77.6606 401.283C76.3663 400.729 74.7779 400.224 72.8953 399.771L67.2728 398.359C62.9194 397.3 59.482 395.644 56.9607 393.392C54.4394 391.139 53.1871 388.105 53.2039 384.29C53.1871 381.163 54.0191 378.432 55.7 376.096C57.3977 373.759 59.7257 371.935 62.684 370.624C65.6424 369.313 69.0041 368.658 72.7693 368.658C76.6017 368.658 79.9466 369.313 82.8041 370.624C85.6784 371.935 87.9139 373.759 89.5107 376.096C91.1076 378.432 91.9312 381.138 91.9816 384.214H81.5182ZM117.478 421.756C113.495 421.756 110.066 420.95 107.191 419.336C104.334 417.705 102.132 415.403 100.586 412.428C99.0392 409.436 98.266 405.897 98.266 401.813C98.266 397.829 99.0392 394.333 100.586 391.324C102.132 388.315 104.309 385.971 107.116 384.29C109.94 382.609 113.251 381.768 117.05 381.768C119.605 381.768 121.983 382.18 124.185 383.004C126.404 383.811 128.337 385.029 129.984 386.66C131.648 388.29 132.942 390.341 133.867 392.812C134.791 395.266 135.254 398.14 135.254 401.435V404.385H102.552V397.728H125.143C125.143 396.182 124.807 394.812 124.135 393.619C123.462 392.425 122.529 391.492 121.336 390.82C120.159 390.131 118.789 389.786 117.226 389.786C115.596 389.786 114.15 390.164 112.89 390.921C111.646 391.66 110.671 392.661 109.965 393.921C109.259 395.165 108.897 396.552 108.881 398.081V404.41C108.881 406.326 109.234 407.982 109.94 409.377C110.662 410.772 111.679 411.848 112.99 412.604C114.301 413.36 115.856 413.739 117.655 413.739C118.848 413.739 119.941 413.571 120.933 413.234C121.924 412.898 122.773 412.394 123.479 411.722C124.185 411.049 124.723 410.226 125.093 409.251L135.027 409.906C134.522 412.293 133.489 414.377 131.925 416.159C130.379 417.924 128.379 419.302 125.925 420.294C123.487 421.269 120.672 421.756 117.478 421.756ZM149.625 421L139.086 382.273H149.953L155.953 408.293H156.306L162.559 382.273H173.224L179.578 408.141H179.906L185.806 382.273H196.647L186.134 421H174.762L168.106 396.644H167.627L160.971 421H149.625ZM213.42 421.731C210.949 421.731 208.748 421.303 206.815 420.445C204.882 419.571 203.352 418.285 202.226 416.588C201.116 414.873 200.562 412.739 200.562 410.184C200.562 408.032 200.957 406.225 201.747 404.763C202.537 403.3 203.612 402.124 204.974 401.233C206.335 400.342 207.882 399.67 209.613 399.216C211.361 398.762 213.193 398.443 215.11 398.258C217.362 398.022 219.177 397.804 220.556 397.602C221.934 397.384 222.934 397.064 223.556 396.644C224.178 396.224 224.489 395.602 224.489 394.778V394.627C224.489 393.03 223.985 391.795 222.976 390.921C221.984 390.047 220.572 389.61 218.74 389.61C216.807 389.61 215.269 390.038 214.126 390.896C212.983 391.736 212.227 392.795 211.857 394.072L201.923 393.266C202.427 390.912 203.419 388.879 204.898 387.164C206.378 385.433 208.285 384.105 210.622 383.18C212.975 382.239 215.698 381.768 218.791 381.768C220.942 381.768 223.001 382.021 224.968 382.525C226.951 383.029 228.708 383.811 230.237 384.87C231.784 385.929 233.003 387.29 233.893 388.954C234.784 390.601 235.23 392.576 235.23 394.879V421H225.044V415.63H224.741C224.119 416.84 223.287 417.907 222.245 418.832C221.203 419.739 219.951 420.454 218.488 420.975C217.026 421.479 215.337 421.731 213.42 421.731ZM216.496 414.319C218.076 414.319 219.472 414.008 220.682 413.386C221.892 412.747 222.842 411.89 223.531 410.814C224.22 409.738 224.565 408.52 224.565 407.158V403.048C224.228 403.267 223.766 403.469 223.178 403.653C222.606 403.821 221.959 403.981 221.236 404.132C220.514 404.267 219.791 404.393 219.068 404.511C218.345 404.612 217.69 404.704 217.101 404.788C215.841 404.973 214.74 405.267 213.799 405.67C212.857 406.074 212.126 406.62 211.605 407.309C211.084 407.982 210.823 408.822 210.823 409.831C210.823 411.293 211.353 412.411 212.412 413.184C213.488 413.94 214.849 414.319 216.496 414.319ZM260.197 369.364H273.661L287.881 404.057H288.486L302.706 369.364H316.17V421H305.58V387.391H305.152L291.789 420.748H284.578L271.215 387.265H270.786V421H260.197V369.364ZM342.461 421.756C338.544 421.756 335.157 420.924 332.3 419.26C329.459 417.579 327.266 415.243 325.719 412.251C324.173 409.242 323.4 405.754 323.4 401.788C323.4 397.787 324.173 394.291 325.719 391.299C327.266 388.29 329.459 385.954 332.3 384.29C335.157 382.609 338.544 381.768 342.461 381.768C346.377 381.768 349.756 382.609 352.597 384.29C355.454 385.954 357.656 388.29 359.202 391.299C360.749 394.291 361.522 397.787 361.522 401.788C361.522 405.754 360.749 409.242 359.202 412.251C357.656 415.243 355.454 417.579 352.597 419.26C349.756 420.924 346.377 421.756 342.461 421.756ZM342.511 413.436C344.293 413.436 345.781 412.932 346.974 411.923C348.167 410.898 349.067 409.503 349.672 407.738C350.294 405.973 350.605 403.964 350.605 401.712C350.605 399.46 350.294 397.451 349.672 395.686C349.067 393.921 348.167 392.526 346.974 391.501C345.781 390.475 344.293 389.963 342.511 389.963C340.713 389.963 339.2 390.475 337.973 391.501C336.763 392.526 335.847 393.921 335.225 395.686C334.62 397.451 334.317 399.46 334.317 401.712C334.317 403.964 334.62 405.973 335.225 407.738C335.847 409.503 336.763 410.898 337.973 411.923C339.2 412.932 340.713 413.436 342.511 413.436ZM389.105 382.273V390.341H365.783V382.273H389.105ZM371.078 372.994H381.818V409.099C381.818 410.091 381.97 410.864 382.272 411.419C382.575 411.957 382.995 412.335 383.533 412.554C384.088 412.772 384.726 412.881 385.449 412.881C385.953 412.881 386.458 412.839 386.962 412.755C387.466 412.654 387.853 412.579 388.122 412.528L389.811 420.521C389.273 420.689 388.517 420.882 387.542 421.101C386.567 421.336 385.382 421.479 383.987 421.529C381.398 421.63 379.129 421.286 377.179 420.496C375.246 419.706 373.742 418.479 372.666 416.815C371.59 415.151 371.061 413.049 371.078 410.511V372.994ZM413.184 421.756C409.267 421.756 405.88 420.924 403.023 419.26C400.182 417.579 397.988 415.243 396.442 412.251C394.896 409.242 394.122 405.754 394.122 401.788C394.122 397.787 394.896 394.291 396.442 391.299C397.988 388.29 400.182 385.954 403.023 384.29C405.88 382.609 409.267 381.768 413.184 381.768C417.1 381.768 420.478 382.609 423.319 384.29C426.177 385.954 428.379 388.29 429.925 391.299C431.471 394.291 432.245 397.787 432.245 401.788C432.245 405.754 431.471 409.242 429.925 412.251C428.379 415.243 426.177 417.579 423.319 419.26C420.478 420.924 417.1 421.756 413.184 421.756ZM413.234 413.436C415.016 413.436 416.503 412.932 417.697 411.923C418.89 410.898 419.789 409.503 420.394 407.738C421.016 405.973 421.327 403.964 421.327 401.712C421.327 399.46 421.016 397.451 420.394 395.686C419.789 393.921 418.89 392.526 417.697 391.501C416.503 390.475 415.016 389.963 413.234 389.963C411.435 389.963 409.923 390.475 408.696 391.501C407.485 392.526 406.569 393.921 405.947 395.686C405.342 397.451 405.04 399.46 405.04 401.712C405.04 403.964 405.342 405.973 405.947 407.738C406.569 409.503 407.485 410.898 408.696 411.923C409.923 412.932 411.435 413.436 413.234 413.436ZM439.229 421V382.273H449.642V389.03H450.045C450.751 386.626 451.936 384.811 453.6 383.584C455.264 382.34 457.18 381.718 459.349 381.718C459.887 381.718 460.466 381.752 461.088 381.819C461.71 381.886 462.257 381.979 462.727 382.096V391.627C462.223 391.475 461.525 391.341 460.635 391.223C459.744 391.106 458.928 391.047 458.189 391.047C456.609 391.047 455.197 391.391 453.953 392.081C452.726 392.753 451.751 393.694 451.028 394.904C450.322 396.115 449.969 397.51 449.969 399.09V421H439.229ZM495.832 369.364V421H484.915V369.364H495.832ZM523.119 421H504.814V369.364H523.27C528.464 369.364 532.935 370.397 536.683 372.465C540.432 374.516 543.314 377.465 545.332 381.315C547.365 385.164 548.382 389.769 548.382 395.131C548.382 400.51 547.365 405.133 545.332 408.999C543.314 412.865 540.415 415.831 536.633 417.899C532.868 419.966 528.363 421 523.119 421ZM515.731 411.646H522.665C525.892 411.646 528.607 411.074 530.809 409.931C533.028 408.772 534.692 406.982 535.801 404.561C536.927 402.124 537.49 398.981 537.49 395.131C537.49 391.316 536.927 388.198 535.801 385.777C534.692 383.357 533.036 381.575 530.834 380.432C528.632 379.289 525.917 378.718 522.69 378.718H515.731V411.646Z" fill="#3563E9"/>
<path d="M147.606 453.139C147.504 452.231 147.082 451.528 146.341 451.03C145.599 450.525 144.666 450.272 143.541 450.272C142.736 450.272 142.039 450.4 141.451 450.656C140.863 450.905 140.406 451.25 140.08 451.691C139.76 452.126 139.6 452.621 139.6 453.177C139.6 453.644 139.709 454.047 139.926 454.386C140.15 454.724 140.441 455.009 140.799 455.239C141.163 455.463 141.553 455.651 141.969 455.805C142.384 455.952 142.783 456.073 143.167 456.169L145.085 456.667C145.711 456.821 146.353 457.029 147.012 457.291C147.67 457.553 148.281 457.898 148.843 458.326C149.406 458.754 149.859 459.285 150.205 459.918C150.556 460.551 150.732 461.308 150.732 462.19C150.732 463.302 150.444 464.29 149.869 465.153C149.3 466.016 148.472 466.697 147.386 467.195C146.306 467.694 144.998 467.943 143.464 467.943C141.994 467.943 140.722 467.71 139.648 467.243C138.574 466.777 137.734 466.115 137.127 465.258C136.519 464.395 136.184 463.373 136.12 462.19H139.092C139.15 462.9 139.38 463.491 139.782 463.964C140.192 464.431 140.712 464.779 141.345 465.009C141.984 465.233 142.684 465.345 143.445 465.345C144.282 465.345 145.027 465.214 145.679 464.952C146.337 464.683 146.855 464.312 147.232 463.839C147.609 463.36 147.798 462.801 147.798 462.161C147.798 461.58 147.632 461.104 147.299 460.733C146.973 460.362 146.529 460.055 145.967 459.812C145.411 459.569 144.781 459.355 144.078 459.17L141.758 458.537C140.185 458.109 138.939 457.479 138.018 456.648C137.104 455.817 136.647 454.718 136.647 453.35C136.647 452.219 136.954 451.231 137.568 450.387C138.181 449.544 139.012 448.888 140.06 448.422C141.109 447.949 142.291 447.712 143.608 447.712C144.938 447.712 146.111 447.946 147.127 448.412C148.15 448.879 148.955 449.521 149.543 450.339C150.131 451.151 150.438 452.084 150.464 453.139H147.606ZM160.246 467.914C158.865 467.914 157.66 467.598 156.631 466.965C155.602 466.332 154.803 465.447 154.234 464.309C153.665 463.171 153.381 461.842 153.381 460.321C153.381 458.793 153.665 457.457 154.234 456.313C154.803 455.169 155.602 454.28 156.631 453.647C157.66 453.014 158.865 452.698 160.246 452.698C161.626 452.698 162.831 453.014 163.86 453.647C164.89 454.28 165.689 455.169 166.257 456.313C166.826 457.457 167.111 458.793 167.111 460.321C167.111 461.842 166.826 463.171 166.257 464.309C165.689 465.447 164.89 466.332 163.86 466.965C162.831 467.598 161.626 467.914 160.246 467.914ZM160.255 465.508C161.15 465.508 161.892 465.271 162.48 464.798C163.068 464.325 163.503 463.696 163.784 462.909C164.071 462.123 164.215 461.257 164.215 460.311C164.215 459.371 164.071 458.508 163.784 457.722C163.503 456.93 163.068 456.294 162.48 455.814C161.892 455.335 161.15 455.095 160.255 455.095C159.354 455.095 158.606 455.335 158.012 455.814C157.424 456.294 156.986 456.93 156.698 457.722C156.417 458.508 156.276 459.371 156.276 460.311C156.276 461.257 156.417 462.123 156.698 462.909C156.986 463.696 157.424 464.325 158.012 464.798C158.606 465.271 159.354 465.508 160.255 465.508ZM173.178 447.981V467.617H170.311V447.981H173.178ZM186.364 461.509V452.89H189.24V467.617H186.421V465.067H186.268C185.929 465.853 185.386 466.508 184.638 467.032C183.896 467.55 182.973 467.809 181.867 467.809C180.921 467.809 180.083 467.601 179.355 467.186C178.632 466.764 178.064 466.141 177.648 465.316C177.239 464.491 177.034 463.472 177.034 462.257V452.89H179.901V461.912C179.901 462.916 180.179 463.715 180.735 464.309C181.292 464.904 182.014 465.201 182.902 465.201C183.439 465.201 183.973 465.067 184.504 464.798C185.041 464.53 185.485 464.124 185.836 463.58C186.194 463.037 186.37 462.347 186.364 461.509ZM204.128 456.485L201.53 456.946C201.421 456.613 201.248 456.297 201.012 455.996C200.782 455.696 200.469 455.45 200.072 455.258C199.676 455.066 199.181 454.97 198.586 454.97C197.774 454.97 197.097 455.153 196.553 455.517C196.01 455.875 195.738 456.338 195.738 456.907C195.738 457.399 195.921 457.796 196.285 458.096C196.649 458.397 197.237 458.643 198.049 458.834L200.389 459.371C201.744 459.685 202.754 460.167 203.418 460.819C204.083 461.471 204.416 462.318 204.416 463.36C204.416 464.242 204.16 465.028 203.649 465.719C203.144 466.403 202.437 466.94 201.53 467.329C200.628 467.719 199.583 467.914 198.394 467.914C196.745 467.914 195.4 467.563 194.358 466.86C193.316 466.15 192.677 465.143 192.44 463.839L195.211 463.417C195.384 464.14 195.738 464.686 196.275 465.057C196.812 465.421 197.512 465.604 198.375 465.604C199.315 465.604 200.066 465.409 200.628 465.019C201.191 464.622 201.472 464.14 201.472 463.571C201.472 463.111 201.299 462.724 200.954 462.411C200.616 462.098 200.095 461.861 199.391 461.701L196.899 461.155C195.524 460.841 194.508 460.343 193.85 459.659C193.198 458.975 192.872 458.109 192.872 457.061C192.872 456.191 193.114 455.431 193.6 454.779C194.086 454.127 194.757 453.618 195.614 453.254C196.47 452.883 197.451 452.698 198.557 452.698C200.149 452.698 201.402 453.043 202.316 453.734C203.23 454.417 203.834 455.335 204.128 456.485ZM207.568 467.617V452.89H210.435V467.617H207.568ZM209.015 450.617C208.517 450.617 208.089 450.451 207.731 450.119C207.379 449.78 207.203 449.377 207.203 448.911C207.203 448.438 207.379 448.035 207.731 447.703C208.089 447.364 208.517 447.194 209.015 447.194C209.514 447.194 209.939 447.364 210.291 447.703C210.649 448.035 210.828 448.438 210.828 448.911C210.828 449.377 210.649 449.78 210.291 450.119C209.939 450.451 209.514 450.617 209.015 450.617ZM221.667 447.981H225.262L231.514 463.245H231.744L237.995 447.981H241.591V467.617H238.772V453.408H238.59L232.799 467.588H230.459L224.668 453.398H224.486V467.617H221.667V447.981ZM254.997 461.509V452.89H257.874V467.617H255.055V465.067H254.902C254.563 465.853 254.019 466.508 253.272 467.032C252.53 467.55 251.606 467.809 250.501 467.809C249.555 467.809 248.717 467.601 247.989 467.186C247.266 466.764 246.697 466.141 246.282 465.316C245.873 464.491 245.668 463.472 245.668 462.257V452.89H248.535V461.912C248.535 462.916 248.813 463.715 249.369 464.309C249.925 464.904 250.648 465.201 251.536 465.201C252.073 465.201 252.607 465.067 253.137 464.798C253.674 464.53 254.119 464.124 254.47 463.58C254.828 463.037 255.004 462.347 254.997 461.509ZM267.239 467.905C266.05 467.905 264.989 467.601 264.056 466.994C263.129 466.38 262.4 465.508 261.87 464.376C261.346 463.239 261.083 461.874 261.083 460.282C261.083 458.691 261.349 457.329 261.879 456.198C262.416 455.066 263.151 454.2 264.085 453.599C265.018 452.998 266.076 452.698 267.258 452.698C268.172 452.698 268.907 452.851 269.463 453.158C270.026 453.459 270.461 453.81 270.767 454.213C271.081 454.616 271.324 454.97 271.496 455.277H271.669V447.981H274.536V467.617H271.736V465.326H271.496C271.324 465.639 271.074 465.997 270.748 466.399C270.429 466.802 269.988 467.154 269.425 467.454C268.863 467.754 268.134 467.905 267.239 467.905ZM267.872 465.46C268.696 465.46 269.393 465.242 269.962 464.808C270.537 464.367 270.972 463.756 271.266 462.976C271.566 462.197 271.717 461.289 271.717 460.253C271.717 459.231 271.57 458.336 271.276 457.569C270.982 456.802 270.55 456.204 269.981 455.776C269.412 455.348 268.709 455.133 267.872 455.133C267.009 455.133 266.29 455.357 265.715 455.805C265.139 456.252 264.705 456.862 264.411 457.636C264.123 458.409 263.979 459.282 263.979 460.253C263.979 461.238 264.126 462.123 264.42 462.909C264.714 463.696 265.149 464.319 265.724 464.779C266.306 465.233 267.022 465.46 267.872 465.46ZM282.913 467.943C281.98 467.943 281.136 467.77 280.382 467.425C279.628 467.074 279.03 466.566 278.589 465.901C278.154 465.236 277.937 464.421 277.937 463.456C277.937 462.625 278.097 461.941 278.416 461.404C278.736 460.867 279.167 460.442 279.711 460.129C280.254 459.816 280.861 459.579 281.532 459.419C282.204 459.259 282.888 459.138 283.584 459.055C284.466 458.953 285.182 458.87 285.732 458.806C286.282 458.735 286.681 458.623 286.931 458.47C287.18 458.317 287.304 458.067 287.304 457.722V457.655C287.304 456.818 287.068 456.169 286.595 455.709C286.128 455.248 285.432 455.018 284.505 455.018C283.54 455.018 282.779 455.232 282.223 455.661C281.673 456.083 281.293 456.552 281.082 457.07L278.388 456.457C278.707 455.562 279.174 454.839 279.787 454.29C280.407 453.734 281.12 453.331 281.926 453.082C282.731 452.826 283.578 452.698 284.466 452.698C285.054 452.698 285.678 452.768 286.336 452.909C287.001 453.043 287.621 453.292 288.196 453.657C288.778 454.021 289.254 454.542 289.625 455.22C289.995 455.891 290.181 456.763 290.181 457.837V467.617H287.381V465.604H287.266C287.081 465.974 286.803 466.339 286.432 466.697C286.061 467.055 285.585 467.352 285.003 467.588C284.422 467.825 283.725 467.943 282.913 467.943ZM283.536 465.642C284.329 465.642 285.007 465.485 285.569 465.172C286.138 464.859 286.569 464.45 286.863 463.945C287.164 463.433 287.314 462.887 287.314 462.305V460.407C287.212 460.509 287.014 460.605 286.72 460.694C286.432 460.778 286.103 460.851 285.732 460.915C285.361 460.973 285 461.027 284.649 461.078C284.297 461.123 284.003 461.161 283.766 461.193C283.21 461.263 282.702 461.382 282.242 461.548C281.788 461.714 281.424 461.954 281.149 462.267C280.88 462.574 280.746 462.983 280.746 463.494C280.746 464.204 281.008 464.741 281.532 465.105C282.057 465.463 282.725 465.642 283.536 465.642ZM296.866 458.873V467.617H293.999V447.981H296.828V455.287H297.01C297.355 454.494 297.882 453.865 298.592 453.398C299.302 452.931 300.228 452.698 301.373 452.698C302.382 452.698 303.265 452.906 304.019 453.321C304.779 453.737 305.368 454.357 305.783 455.181C306.205 456 306.416 457.022 306.416 458.25V467.617H303.549V458.595C303.549 457.514 303.271 456.677 302.715 456.083C302.159 455.482 301.385 455.181 300.395 455.181C299.717 455.181 299.11 455.325 298.573 455.613C298.042 455.9 297.624 456.322 297.317 456.878C297.016 457.428 296.866 458.093 296.866 458.873ZM328.327 453.139C328.225 452.231 327.803 451.528 327.061 451.03C326.32 450.525 325.387 450.272 324.262 450.272C323.456 450.272 322.76 450.4 322.171 450.656C321.583 450.905 321.126 451.25 320.8 451.691C320.481 452.126 320.321 452.621 320.321 453.177C320.321 453.644 320.43 454.047 320.647 454.386C320.871 454.724 321.162 455.009 321.519 455.239C321.884 455.463 322.274 455.651 322.689 455.805C323.105 455.952 323.504 456.073 323.888 456.169L325.805 456.667C326.432 456.821 327.074 457.029 327.733 457.291C328.391 457.553 329.001 457.898 329.564 458.326C330.126 458.754 330.58 459.285 330.925 459.918C331.277 460.551 331.453 461.308 331.453 462.19C331.453 463.302 331.165 464.29 330.59 465.153C330.021 466.016 329.193 466.697 328.106 467.195C327.026 467.694 325.719 467.943 324.185 467.943C322.715 467.943 321.443 467.71 320.369 467.243C319.295 466.777 318.454 466.115 317.847 465.258C317.24 464.395 316.904 463.373 316.84 462.19H319.813C319.87 462.9 320.1 463.491 320.503 463.964C320.912 464.431 321.433 464.779 322.066 465.009C322.705 465.233 323.405 465.345 324.166 465.345C325.003 465.345 325.748 465.214 326.4 464.952C327.058 464.683 327.576 464.312 327.953 463.839C328.33 463.36 328.519 462.801 328.519 462.161C328.519 461.58 328.353 461.104 328.02 460.733C327.694 460.362 327.25 460.055 326.687 459.812C326.131 459.569 325.502 459.355 324.799 459.17L322.478 458.537C320.906 458.109 319.659 457.479 318.739 456.648C317.825 455.817 317.368 454.718 317.368 453.35C317.368 452.219 317.675 451.231 318.288 450.387C318.902 449.544 319.733 448.888 320.781 448.422C321.829 447.949 323.012 447.712 324.329 447.712C325.658 447.712 326.831 447.946 327.848 448.412C328.87 448.879 329.676 449.521 330.264 450.339C330.852 451.151 331.159 452.084 331.184 453.139H328.327ZM341.11 467.914C339.659 467.914 338.41 467.604 337.361 466.984C336.319 466.358 335.514 465.479 334.945 464.348C334.383 463.21 334.101 461.877 334.101 460.349C334.101 458.841 334.383 457.511 334.945 456.361C335.514 455.21 336.307 454.312 337.323 453.666C338.346 453.021 339.541 452.698 340.909 452.698C341.74 452.698 342.545 452.835 343.325 453.11C344.105 453.385 344.805 453.817 345.425 454.405C346.045 454.993 346.534 455.757 346.892 456.696C347.25 457.629 347.429 458.764 347.429 460.1V461.116H335.722V458.969H344.62C344.62 458.214 344.466 457.546 344.159 456.965C343.852 456.377 343.421 455.913 342.865 455.574C342.315 455.236 341.67 455.066 340.928 455.066C340.123 455.066 339.42 455.264 338.819 455.661C338.224 456.051 337.764 456.562 337.438 457.195C337.118 457.821 336.959 458.502 336.959 459.237V460.915C336.959 461.899 337.131 462.737 337.476 463.427C337.828 464.117 338.317 464.645 338.943 465.009C339.57 465.367 340.302 465.546 341.139 465.546C341.682 465.546 342.178 465.469 342.625 465.316C343.073 465.156 343.459 464.92 343.785 464.606C344.111 464.293 344.361 463.906 344.533 463.446L347.247 463.935C347.029 464.734 346.639 465.434 346.077 466.035C345.521 466.629 344.821 467.093 343.977 467.425C343.14 467.751 342.184 467.914 341.11 467.914ZM353.776 467.617L349.442 452.89H352.405L355.291 463.705H355.435L358.33 452.89H361.293L364.17 463.657H364.313L367.18 452.89H370.143L365.819 467.617H362.894L359.903 456.984H359.682L356.691 467.617H353.776ZM377.149 467.943C376.216 467.943 375.372 467.77 374.618 467.425C373.864 467.074 373.266 466.566 372.825 465.901C372.391 465.236 372.173 464.421 372.173 463.456C372.173 462.625 372.333 461.941 372.653 461.404C372.972 460.867 373.404 460.442 373.947 460.129C374.49 459.816 375.098 459.579 375.769 459.419C376.44 459.259 377.124 459.138 377.821 459.055C378.703 458.953 379.419 458.87 379.968 458.806C380.518 458.735 380.918 458.623 381.167 458.47C381.416 458.317 381.541 458.067 381.541 457.722V457.655C381.541 456.818 381.304 456.169 380.831 455.709C380.365 455.248 379.668 455.018 378.741 455.018C377.776 455.018 377.015 455.232 376.459 455.661C375.909 456.083 375.529 456.552 375.318 457.07L372.624 456.457C372.943 455.562 373.41 454.839 374.024 454.29C374.644 453.734 375.356 453.331 376.162 453.082C376.967 452.826 377.814 452.698 378.703 452.698C379.291 452.698 379.914 452.768 380.572 452.909C381.237 453.043 381.857 453.292 382.432 453.657C383.014 454.021 383.49 454.542 383.861 455.22C384.232 455.891 384.417 456.763 384.417 457.837V467.617H381.617V465.604H381.502C381.317 465.974 381.039 466.339 380.668 466.697C380.298 467.055 379.821 467.352 379.24 467.588C378.658 467.825 377.961 467.943 377.149 467.943ZM377.773 465.642C378.565 465.642 379.243 465.485 379.805 465.172C380.374 464.859 380.806 464.45 381.1 463.945C381.4 463.433 381.55 462.887 381.55 462.305V460.407C381.448 460.509 381.25 460.605 380.956 460.694C380.668 460.778 380.339 460.851 379.968 460.915C379.598 460.973 379.236 461.027 378.885 461.078C378.533 461.123 378.239 461.161 378.003 461.193C377.447 461.263 376.939 461.382 376.478 461.548C376.024 461.714 375.66 461.954 375.385 462.267C375.117 462.574 374.983 462.983 374.983 463.494C374.983 464.204 375.245 464.741 375.769 465.105C376.293 465.463 376.961 465.642 377.773 465.642ZM395.611 447.981H399.207L405.458 463.245H405.688L411.94 447.981H415.535V467.617H412.716V453.408H412.534L406.743 467.588H404.404L398.612 453.398H398.43V467.617H395.611V447.981ZM425.816 467.914C424.435 467.914 423.23 467.598 422.201 466.965C421.172 466.332 420.373 465.447 419.804 464.309C419.235 463.171 418.951 461.842 418.951 460.321C418.951 458.793 419.235 457.457 419.804 456.313C420.373 455.169 421.172 454.28 422.201 453.647C423.23 453.014 424.435 452.698 425.816 452.698C427.197 452.698 428.402 453.014 429.431 453.647C430.46 454.28 431.259 455.169 431.828 456.313C432.397 457.457 432.681 458.793 432.681 460.321C432.681 461.842 432.397 463.171 431.828 464.309C431.259 465.447 430.46 466.332 429.431 466.965C428.402 467.598 427.197 467.914 425.816 467.914ZM425.826 465.508C426.721 465.508 427.462 465.271 428.05 464.798C428.638 464.325 429.073 463.696 429.354 462.909C429.642 462.123 429.786 461.257 429.786 460.311C429.786 459.371 429.642 458.508 429.354 457.722C429.073 456.93 428.638 456.294 428.05 455.814C427.462 455.335 426.721 455.095 425.826 455.095C424.924 455.095 424.177 455.335 423.582 455.814C422.994 456.294 422.556 456.93 422.268 457.722C421.987 458.508 421.847 459.371 421.847 460.311C421.847 461.257 421.987 462.123 422.268 462.909C422.556 463.696 422.994 464.325 423.582 464.798C424.177 465.271 424.924 465.508 425.826 465.508ZM442.756 452.89V455.191H434.711V452.89H442.756ZM436.869 449.361H439.736V463.293C439.736 463.849 439.819 464.268 439.985 464.549C440.151 464.824 440.365 465.012 440.627 465.115C440.896 465.21 441.187 465.258 441.5 465.258C441.73 465.258 441.931 465.242 442.104 465.21C442.276 465.179 442.411 465.153 442.507 465.134L443.024 467.502C442.858 467.566 442.622 467.63 442.315 467.694C442.008 467.764 441.624 467.802 441.164 467.809C440.41 467.822 439.707 467.687 439.055 467.406C438.403 467.125 437.875 466.69 437.473 466.102C437.07 465.514 436.869 464.776 436.869 463.887V449.361ZM451.972 467.914C450.592 467.914 449.387 467.598 448.358 466.965C447.329 466.332 446.529 465.447 445.961 464.309C445.392 463.171 445.107 461.842 445.107 460.321C445.107 458.793 445.392 457.457 445.961 456.313C446.529 455.169 447.329 454.28 448.358 453.647C449.387 453.014 450.592 452.698 451.972 452.698C453.353 452.698 454.558 453.014 455.587 453.647C456.616 454.28 457.415 455.169 457.984 456.313C458.553 457.457 458.837 458.793 458.837 460.321C458.837 461.842 458.553 463.171 457.984 464.309C457.415 465.447 456.616 466.332 455.587 466.965C454.558 467.598 453.353 467.914 451.972 467.914ZM451.982 465.508C452.877 465.508 453.618 465.271 454.206 464.798C454.794 464.325 455.229 463.696 455.51 462.909C455.798 462.123 455.942 461.257 455.942 460.311C455.942 459.371 455.798 458.508 455.51 457.722C455.229 456.93 454.794 456.294 454.206 455.814C453.618 455.335 452.877 455.095 451.982 455.095C451.081 455.095 450.333 455.335 449.738 455.814C449.15 456.294 448.712 456.93 448.425 457.722C448.143 458.508 448.003 459.371 448.003 460.311C448.003 461.257 448.143 462.123 448.425 462.909C448.712 463.696 449.15 464.325 449.738 464.798C450.333 465.271 451.081 465.508 451.982 465.508ZM462.037 467.617V452.89H464.808V455.229H464.962C465.23 454.437 465.703 453.813 466.381 453.36C467.065 452.899 467.838 452.669 468.701 452.669C468.88 452.669 469.091 452.676 469.334 452.688C469.583 452.701 469.778 452.717 469.919 452.736V455.479C469.804 455.447 469.599 455.411 469.305 455.373C469.011 455.328 468.717 455.306 468.423 455.306C467.745 455.306 467.141 455.45 466.611 455.737C466.087 456.019 465.671 456.412 465.364 456.917C465.058 457.415 464.904 457.984 464.904 458.623V467.617H462.037Z" fill="black"/>
<line x1="31" y1="458.605" x2="109.978" y2="458.605" stroke="black" stroke-width="3"/>
<line x1="490.418" y1="458.605" x2="569.396" y2="458.605" stroke="black" stroke-width="3"/>
</svg>
